<?xml version="1.0" encoding="utf-8"?>
<!-- Generator: Adobe Illustrator 16.0.0, SVG Export Plug-In . SVG Version: 6.00 Build 0)  -->
<!DOCTYPE svg PUBLIC "-//W3C//DTD SVG 1.1//EN" "http://www.w3.org/Graphics/SVG/1.1/DTD/svg11.dtd">
<svg version="1.1" id="Layer_1" xmlns="http://www.w3.org/2000/svg" xmlns:xlink="http://www.w3.org/1999/xlink" x="0px" y="0px"
	 width="612px" height="792px" viewBox="0 0 612 792" enable-background="new 0 0 612 792" xml:space="preserve">
<g>
	<path d="M437.026,354.495c1.14-3.581,2.116-6.673,2.93-9.766c9.767-35.157,19.695-70.314,33.204-104.333
		c6.022-15.3,16.277-23.926,32.229-25.717c10.579-1.139,21.811-2.116,28.972,7.976c4.721,6.348,10.092,10.091,17.741,11.394
		c3.581,0.488,7.162,1.465,10.58,2.767c4.721,1.791,6.511-0.163,7.812-4.558c4.069-14.323,8.302-28.484,12.533-42.645
		c4.721-16.114,4.721-15.951-10.905-21.485c-6.511-2.279-12.37-3.255-19.206-0.325c-11.068,4.557-21.16,2.767-30.111-6.185
		c-9.441-9.44-20.184-16.765-33.042-21.322c-36.948-12.859-74.872-18.556-113.773-12.371c-18.718,2.93-36.948,7.976-52.736,19.207
		c-2.278,1.627-4.069,3.581-6.185,5.534c21.484-1.791,42.156-2.116,62.827,0.651c13.998,1.791,26.531,6.511,35.809,18.393
		c9.766,12.533,12.045,27.345,13.347,42.319c1.791,20.997-2.115,41.18-7.976,61.2c-6.185,21.16-12.044,42.645-18.066,63.804
		c-0.814,2.767-1.465,5.208,2.278,6.185C415.704,348.31,425.959,351.239,437.026,354.495z"/>
	<path d="M336.926,674.492c10.254,0.814,18.555-3.906,23.764-13.021c3.093-5.372,5.534-11.394,6.999-17.416
		c15.625-64.618,31.088-129.236,46.551-194.018c6.348-26.856,12.37-53.713,18.881-80.569c1.302-5.208,0-7.325-5.046-8.464
		c-6.836-1.628-13.672-3.581-20.508-5.697c-12.533-3.744-10.092-3.255-13.836,7.162c-30.763,87.731-61.688,175.299-92.451,263.03
		c-1.302,3.581-2.441,7.487-2.604,11.23C297.699,658.867,313.324,674.33,336.926,674.492z"/>
	<path d="M21.16,284.017c0.651,5.371,1.302,9.929,1.953,14.323c4.72,31.251,9.603,62.502,14.161,93.753
		c4.72,31.414,9.278,62.99,13.835,94.404c4.72,31.739,9.44,63.315,14.324,95.055c2.93,20.021,6.022,40.041,8.952,60.224
		c0.651,4.232,2.116,6.186,7.162,5.371c29.623-4.883,59.247-9.603,88.87-14.16c42.319-6.674,84.476-13.021,126.794-19.694
		c1.628-0.326,2.93-2.279,4.395-3.581c-1.791-0.977-3.907-2.768-5.534-2.604c-23.113,3.255-46.063,6.836-69.176,10.417
		c-46.713,7.324-93.427,14.486-139.979,21.974c-4.883,0.813-6.511-0.326-7.162-5.046c-2.767-20.346-5.697-40.529-8.79-60.712
		c-6.673-44.924-13.672-89.847-20.346-134.607c-7.324-48.83-14.486-97.822-21.973-146.815c-0.814-5.371,0.977-7.812,6.348-8.464
		c9.44-1.302,18.881-2.93,28.159-4.395c38.413-6.185,76.825-12.533,115.238-18.718c33.53-5.534,67.222-11.068,100.752-16.602
		c31.251-5.045,62.34-10.091,93.591-15.3c14.648-2.441,29.135-4.72,43.783-7.487c1.791-0.326,3.093-2.93,4.558-4.395
		c-1.953-0.814-3.906-1.628-5.859-2.279c-0.488-0.163-1.14,0.163-1.79,0.325c-18.23,3.093-36.46,6.186-54.527,9.115
		c-38.412,6.348-76.825,12.533-115.238,18.881c-35.809,5.859-71.617,11.882-107.426,17.741
		c-36.785,6.022-73.57,12.208-110.355,18.067C21.811,279.459,19.695,280.599,21.16,284.017z"/>
	<path d="M485.043,229.979c-0.977,0-1.954,0-2.93-0.163c-0.488,4.069-1.954,8.301-1.466,12.37
		c1.791,13.184,4.396,26.368,6.511,39.552c5.86,35.32,11.72,70.803,17.579,106.124c5.859,35.32,11.719,70.803,17.741,106.124
		c3.744,22.624,7.65,45.249,11.394,67.71c0.651,3.419,0,5.86-4.231,6.511c-31.251,4.883-62.502,9.767-93.754,14.649
		c-14.812,2.278-29.623,4.72-44.435,7.324c-1.302,0.163-2.441,2.278-3.581,3.581c1.628,0.813,3.093,2.278,4.558,2.278
		c4.72-0.325,9.277-1.139,13.835-1.79c34.669-5.534,69.339-11.068,103.845-16.603c10.417-1.627,20.671-3.418,31.902-5.208
		C523.13,458.014,504.086,344.078,485.043,229.979z"/>
	<path d="M361.503,435.063c3.744-3.743,3.093-6.511,0.488-9.603c-10.254-12.208-20.183-24.415-30.437-36.623
		c-28.484-34.344-57.131-68.85-85.615-103.356c-2.279-2.767-4.232-6.511-4.883-10.091c-1.14-6.999,3.581-13.347,10.417-16.114
		c7.324-2.767,13.672-0.813,19.857,6.511c27.996,33.53,56.154,67.06,84.149,100.589c6.674,7.976,13.51,15.951,20.509,24.252
		c3.581-3.744,3.093-6.511,0.488-9.604c-11.23-13.347-22.462-26.856-33.692-40.203c-22.625-27.019-45.086-54.038-67.874-80.732
		c-9.115-10.58-22.95-11.231-33.042-2.441c-9.929,8.626-10.417,20.834-1.139,31.902c35.157,42.482,70.315,84.801,105.472,127.283
		C351.249,423.02,356.295,428.879,361.503,435.063z"/>
	<path d="M249.195,366.54c-1.14-0.814-2.441-1.954-3.907-2.604c-11.23-4.232-22.461-8.138-33.692-12.37
		c-3.581-1.302-5.208,0-6.511,3.092c-20.508,50.458-41.017,100.752-61.525,151.21c-1.627,3.743-0.488,5.534,2.93,6.836
		c10.58,4.231,21.16,8.301,31.577,13.021c5.697,2.604,7.976,1.302,10.091-4.395c19.532-49.97,39.39-99.776,59.084-149.583
		C247.73,370.608,248.218,368.981,249.195,366.54z"/>
	<path d="M356.457,436.366c-8.138-10.255-15.625-18.719-21.811-27.833c-5.533-8.464-11.719-12.859-21.973-8.627
		c-2.441,0.977-5.209,0.977-7.813,1.303c-21.811,3.743-43.458,7.486-65.27,11.23c-3.418,0.651-6.348,1.465-7.812,5.534
		c-4.232,12.044-8.79,23.927-13.184,35.971c-0.488,1.303-0.488,2.93-0.814,5.209C264.169,451.666,309.418,444.179,356.457,436.366z"
		/>
	<path d="M173.508,421.88c-26.693,4.395-52.085,8.464-78.29,12.695c1.79,12.208,3.744,23.765,5.045,35.483
		c0.651,5.046,2.767,5.696,7.325,5.046c13.347-2.116,26.856-3.906,40.366-5.534c4.069-0.488,6.673-2.116,8.301-5.859
		c4.883-11.72,10.091-23.438,15.137-35.158C172.207,426.6,172.532,424.973,173.508,421.88z"/>
	<path d="M459.651,523.445c-15.951-9.766-31.739-19.369-48.993-29.786c0.651,3.093,0.326,6.674,1.953,8.464
		c3.093,3.418,6.837,6.349,10.905,8.464c5.534,3.093,11.394,5.209,17.091,7.976c8.301,4.069,14.323,9.929,14.323,20.021
		c0,1.628,0.813,3.255,1.465,5.046c0.977-0.488,1.303-0.651,1.628-0.814c0.488-0.488,0.813-0.977,1.14-1.465
		c9.766-14.485,10.417-30.437,6.185-46.714c-4.72-18.229-13.184-34.018-30.926-43.133c-4.883-2.441-7.976-0.325-11.556,2.116
		c-3.744,2.604-5.86,5.697-4.884,11.23c2.604-1.627,4.884-2.767,6.511-4.395c4.069-4.231,7.813-3.255,12.37-0.325
		C454.768,472.663,465.999,504.239,459.651,523.445z"/>
	<path d="M132.329,591.645c0.651,0.326,1.302,0.651,1.953,0.814c16.114-20.184,32.391-40.366,48.83-61.038
		c-2.441-1.302-3.907-2.278-5.534-2.93c-10.417-4.231-20.834-8.138-31.088-12.532c-4.883-2.116-6.348-0.651-6.673,4.395
		c-1.302,13.672-2.93,27.345-4.395,41.18C134.282,571.624,133.305,581.716,132.329,591.645z"/>
	<path d="M237.313,311.036c-9.44,0.977-15.626,4.883-19.207,13.184c-2.441,6.022-4.72,12.044-7.487,17.904
		c-1.627,3.418-1.139,5.534,2.767,6.836c10.905,3.744,21.811,7.813,32.553,12.045c3.906,1.465,5.534,0.163,6.999-3.255
		c2.441-6.185,5.208-12.37,7.812-18.555c3.418-8.301,1.953-15.3-5.534-20.183C249.846,315.594,243.335,313.641,237.313,311.036z"/>
	<path d="M428.237,423.345c13.672-1.79,27.182-3.581,40.528-5.697c1.14-0.162,2.604-3.092,2.441-4.395
		c-1.627-10.742-3.58-21.647-5.859-32.228c-0.325-1.627-3.093-3.906-4.72-3.906c-6.837,0.488-13.673,1.465-20.509,2.604
		c-3.418,0.488-5.859,2.116-3.906,6.999c6.185-0.813,12.533-1.79,18.881-2.278c1.465-0.163,4.231,1.139,4.395,2.116
		c1.79,8.138,3.093,16.603,4.721,25.229c-10.58,1.465-20.509,2.768-30.275,4.069C430.354,416.346,427.098,417.159,428.237,423.345z"
		/>
	<path d="M437.026,354.495c-10.905-3.255-21.322-6.185-31.576-9.115c-3.744-1.14-3.093-3.418-2.279-6.185
		c6.022-21.323,11.882-42.645,18.067-63.804c5.859-20.021,9.766-40.366,7.976-61.2c-1.302-14.975-3.418-29.624-13.347-42.319
		c-9.277-11.882-21.811-16.602-35.809-18.393c-20.671-2.767-41.18-2.441-62.828-0.651c2.116-1.791,3.907-3.906,6.186-5.534
		c15.788-11.231,34.018-16.276,52.736-19.206c39.063-6.185,76.825-0.326,113.773,12.37c12.858,4.395,23.601,11.882,33.041,21.322
		c8.952,8.952,19.044,10.743,30.112,6.185c6.836-2.93,12.695-1.953,19.206,0.326c15.625,5.534,15.625,5.371,10.905,21.485
		c-4.231,14.161-8.464,28.321-12.533,42.645c-1.302,4.395-3.093,6.186-7.812,4.558c-3.418-1.302-6.999-2.279-10.58-2.767
		c-7.649-1.139-13.184-4.883-17.741-11.394c-7.324-9.929-18.393-9.115-28.973-7.976c-15.951,1.791-26.205,10.417-32.228,25.717
		c-13.51,34.018-23.438,69.175-33.204,104.333C439.143,347.821,438.166,350.751,437.026,354.495z"/>
	<path d="M336.926,674.492c-23.602-0.162-39.064-15.463-38.25-37.762c0.163-3.743,1.302-7.649,2.604-11.23
		c30.763-87.73,61.688-175.299,92.614-262.867c3.581-10.417,1.302-10.742,13.835-7.162c6.836,1.953,13.673,4.069,20.509,5.697
		c5.046,1.14,6.348,3.255,5.046,8.464c-6.511,26.856-12.533,53.713-18.881,80.569c-15.463,64.618-30.926,129.398-46.551,194.017
		c-1.466,6.022-3.907,12.045-6.999,17.416C355.48,670.586,347.18,675.307,336.926,674.492z"/>
	<path d="M21.16,284.017c-1.465-3.418,0.651-4.558,4.883-5.208c36.785-5.86,73.57-12.045,110.355-18.067
		c35.809-5.859,71.617-11.882,107.425-17.741c38.413-6.348,76.825-12.533,115.238-18.881c18.229-2.93,36.46-6.022,54.526-9.115
		c0.651-0.163,1.303-0.488,1.791-0.326c1.953,0.651,3.906,1.465,5.859,2.279c-1.465,1.465-2.767,4.069-4.558,4.395
		c-14.486,2.767-29.135,5.046-43.784,7.487c-31.251,5.046-62.339,10.091-93.59,15.3c-33.53,5.534-67.223,11.068-100.752,16.602
		c-38.413,6.348-76.825,12.533-115.238,18.718c-9.44,1.465-18.718,3.255-28.158,4.395c-5.372,0.651-7.162,3.092-6.348,8.463
		c7.487,48.83,14.649,97.823,21.974,146.815c6.673,44.924,13.672,89.847,20.346,134.607c3.092,20.184,6.022,40.529,8.789,60.712
		c0.651,4.72,2.116,5.859,7.162,5.046c46.551-7.487,93.265-14.649,139.979-21.974c23.113-3.581,46.062-7.161,69.175-10.417
		c1.628-0.163,3.744,1.628,5.534,2.604c-1.465,1.302-2.767,3.255-4.395,3.581c-42.156,6.673-84.476,13.184-126.795,19.694
		c-29.623,4.558-59.247,9.277-88.87,14.161c-5.046,0.813-6.511-1.14-7.162-5.372c-2.93-20.02-5.859-40.04-8.952-60.223
		c-4.72-31.74-9.603-63.316-14.323-95.056c-4.72-31.414-9.278-62.99-13.835-94.404c-4.72-31.251-9.44-62.502-14.161-93.753
		C22.462,293.946,21.811,289.551,21.16,284.017z"/>
	<path d="M485.043,229.979c19.043,113.937,38.087,227.872,57.293,342.785c-11.23,1.791-21.484,3.581-31.902,5.209
		c-34.669,5.534-69.175,11.067-103.844,16.602c-4.558,0.651-9.278,1.465-13.836,1.791c-1.465,0.162-3.092-1.465-4.557-2.279
		c1.139-1.302,2.278-3.255,3.58-3.581c14.812-2.604,29.624-5.045,44.436-7.324c31.251-4.883,62.502-9.929,93.753-14.648
		c4.232-0.651,4.721-3.093,4.232-6.511c-3.744-22.625-7.65-45.086-11.394-67.711c-5.86-35.32-11.72-70.803-17.742-106.123
		c-5.859-35.32-11.719-70.803-17.578-106.124c-2.279-13.184-4.721-26.368-6.511-39.552c-0.488-3.906,0.977-8.138,1.465-12.37
		C483.252,229.979,484.066,229.979,485.043,229.979z"/>
	<path d="M361.503,435.063c-5.208-6.185-10.254-12.044-15.3-18.229c-35.157-42.482-70.315-84.801-105.472-127.283
		c-9.278-11.068-8.79-23.113,1.139-31.902c10.254-8.952,24.089-8.301,33.042,2.441c22.787,26.694,45.249,53.875,67.874,80.732
		c11.23,13.347,22.299,26.856,33.692,40.203c2.604,3.093,3.256,5.86-0.488,9.604c-6.999-8.301-13.835-16.277-20.509-24.252
		c-27.995-33.53-56.154-67.06-84.149-100.589c-6.186-7.324-12.533-9.44-19.857-6.511c-6.999,2.767-11.557,9.115-10.417,16.114
		c0.488,3.581,2.441,7.324,4.883,10.091c28.484,34.506,56.968,68.85,85.615,103.356c10.091,12.208,20.183,24.415,30.437,36.623
		C364.596,428.553,365.409,431.32,361.503,435.063z"/>
	<path d="M249.195,366.54c-0.814,2.441-1.302,3.906-1.953,5.534c-19.695,49.807-39.552,99.613-59.084,149.582
		c-2.278,5.697-4.395,6.999-10.091,4.395c-10.254-4.72-20.997-8.789-31.577-13.021c-3.581-1.465-4.557-3.092-2.93-6.836
		c20.671-50.295,41.18-100.752,61.525-151.209c1.302-3.255,2.93-4.558,6.511-3.092c11.231,4.231,22.462,8.138,33.692,12.37
		C246.753,364.586,247.893,365.726,249.195,366.54z M210.782,358.401c-2.767,6.999-5.371,13.184-7.812,19.369
		c-16.765,41.18-33.53,82.36-50.458,123.54c-1.953,4.883-0.977,6.836,3.581,8.464c6.51,2.278,13.021,4.883,19.206,7.812
		c4.883,2.441,6.836,1.465,8.79-3.581c12.696-32.553,25.554-64.943,38.576-97.496c6.185-15.463,12.207-30.926,18.555-47.04
		C230.965,365.888,221.362,362.308,210.782,358.401z"/>
	<path d="M356.457,436.366c-47.039,7.812-92.288,15.137-138.514,22.787c0.326-2.279,0.326-3.744,0.814-5.209
		c4.395-12.044,9.115-23.927,13.184-35.971c1.465-4.069,4.395-5.046,7.813-5.534c21.811-3.744,43.458-7.487,65.269-11.23
		c2.604-0.488,5.371-0.326,7.812-1.303c10.255-4.069,16.276,0.325,21.974,8.627C340.832,417.811,348.319,426.111,356.457,436.366z
		 M226.896,451.178c39.715-6.511,78.291-13.021,117.68-19.532c-6.999-8.789-13.021-16.602-19.369-24.252
		c-1.139-1.302-3.743-1.953-5.696-1.79c-5.697,0.65-11.231,1.627-16.765,2.604c-19.369,3.256-38.738,6.511-57.945,10.092
		c-2.441,0.488-6.022,1.953-6.836,3.906C233.895,431.32,230.639,440.761,226.896,451.178z"/>
	<path d="M173.508,421.88c-0.977,3.093-1.465,4.72-2.116,6.348c-5.046,11.72-10.254,23.438-15.137,35.157
		c-1.628,3.906-4.069,5.371-8.301,5.86c-13.509,1.627-26.856,3.418-40.366,5.533c-4.558,0.651-6.673,0-7.325-5.045
		c-1.465-11.557-3.255-23.113-5.045-35.483C121.423,430.344,146.815,426.274,173.508,421.88z M163.417,430.181
		c-19.532,3.093-37.599,5.859-55.34,8.952c-1.791,0.326-4.72,3.256-4.72,4.721c0.488,6.999,1.791,13.997,3.255,20.996
		c0.325,1.303,3.092,3.093,4.395,2.93c11.068-1.302,22.136-2.767,33.042-4.557c2.116-0.326,5.208-1.465,6.022-3.093
		C154.791,450.689,158.697,440.924,163.417,430.181z"/>
	<path d="M459.651,523.445c6.348-19.206-4.884-50.782-22.787-62.99c-4.396-3.093-8.139-3.906-12.371,0.326
		c-1.627,1.627-3.906,2.604-6.51,4.395c-0.978-5.697,1.139-8.627,4.883-11.231c3.581-2.604,6.673-4.558,11.556-2.115
		c17.742,9.114,26.206,24.902,30.926,43.133c4.232,16.276,3.581,32.228-6.185,46.714c-0.326,0.488-0.651,0.977-1.14,1.465
		c-0.325,0.325-0.651,0.325-1.628,0.813c-0.488-1.79-1.465-3.418-1.465-5.046c0-10.091-6.022-15.951-14.323-20.02
		c-5.697-2.768-11.719-4.884-17.091-7.976c-4.068-2.279-7.976-5.046-10.905-8.464c-1.627-1.791-1.302-5.371-1.953-8.464
		C427.912,504.076,443.7,513.68,459.651,523.445z"/>
	<path d="M132.329,591.645c0.977-10.092,1.791-20.021,2.93-30.111c1.465-13.673,3.255-27.345,4.395-41.18
		c0.488-5.046,1.791-6.511,6.673-4.395c10.254,4.395,20.671,8.301,31.088,12.532c1.627,0.651,3.092,1.628,5.534,2.93
		c-16.602,20.672-32.716,40.854-48.83,61.038C133.631,592.296,132.98,591.97,132.329,591.645z M140.63,572.764
		c0.488,0.163,0.977,0.163,1.302,0.326c10.254-13.021,20.346-25.88,30.925-39.39c-9.603-3.744-17.904-6.999-26.856-10.58
		C144.21,540.373,142.42,556.65,140.63,572.764z"/>
	<path d="M237.313,311.036c6.022,2.604,12.533,4.558,17.904,8.138c7.487,4.883,8.952,11.882,5.534,20.183
		c-2.604,6.185-5.371,12.208-7.812,18.555c-1.302,3.418-3.093,4.72-6.999,3.255c-10.743-4.232-21.648-8.138-32.553-12.044
		c-3.906-1.302-4.232-3.418-2.767-6.836c2.604-5.859,4.883-12.044,7.487-17.904C221.687,315.919,227.709,312.013,237.313,311.036z
		 M217.455,343.427c9.44,3.581,18.393,6.999,27.182,9.929c0.977,0.325,3.255-1.14,3.906-2.441c2.279-4.721,4.069-9.604,6.348-14.486
		c2.116-4.558,1.139-8.952-2.767-11.231c-4.558-2.767-9.603-4.72-14.812-6.022c-5.697-1.302-10.417,1.302-12.695,6.836
		C222.176,331.544,220.06,336.916,217.455,343.427z"/>
	<path d="M428.237,423.345c-1.302-6.186,2.116-6.999,5.696-7.487c9.767-1.302,19.532-2.604,30.275-4.069
		c-1.628-8.626-2.931-16.927-4.721-25.229c-0.163-0.977-2.93-2.279-4.395-2.116c-6.348,0.488-12.696,1.465-18.881,2.279
		c-1.791-5.045,0.651-6.51,3.906-6.999c6.836-0.977,13.672-2.116,20.509-2.604c1.627-0.163,4.395,2.279,4.72,3.906
		c2.279,10.743,4.232,21.485,5.859,32.228c0.163,1.303-1.465,4.232-2.441,4.395C455.419,419.764,442.072,421.392,428.237,423.345z"
		/>
	<path d="M210.782,358.401c10.58,3.907,20.183,7.325,30.438,11.068c-6.348,16.114-12.533,31.577-18.555,47.04
		c-12.859,32.553-25.88,64.943-38.576,97.496c-1.953,5.046-4.069,6.022-8.79,3.581c-6.185-3.093-12.696-5.534-19.206-7.812
		c-4.558-1.628-5.534-3.581-3.581-8.464c16.928-41.18,33.692-82.359,50.458-123.54C205.411,371.585,207.852,365.4,210.782,358.401z"
		/>
	<path d="M226.896,451.178c3.907-10.417,6.999-19.694,10.906-28.81c0.813-1.953,4.395-3.418,6.836-3.906
		c19.369-3.581,38.738-6.836,57.945-10.092c5.534-0.977,11.23-2.116,16.765-2.604c1.791-0.162,4.558,0.488,5.697,1.791
		c6.348,7.649,12.532,15.463,19.369,24.252C305.186,438.156,266.611,444.504,226.896,451.178z"/>
	<path d="M163.417,430.181c-4.72,10.743-8.626,20.509-13.347,29.786c-0.814,1.628-3.906,2.768-6.022,3.093
		c-10.905,1.79-21.973,3.255-33.042,4.558c-1.465,0.162-4.232-1.628-4.395-2.93c-1.465-6.837-2.767-13.835-3.255-20.997
		c-0.163-1.465,2.767-4.395,4.72-4.72C125.818,436.04,143.885,433.273,163.417,430.181z"/>
	<path d="M140.63,572.764c1.791-16.276,3.581-32.391,5.534-49.644c8.789,3.418,17.253,6.836,26.856,10.58
		c-10.58,13.51-20.834,26.368-30.925,39.39C141.606,573.089,141.118,572.927,140.63,572.764z"/>
	<path d="M217.455,343.427c2.604-6.511,4.721-11.882,7.162-17.253c2.441-5.534,6.999-8.138,12.696-6.836
		c5.208,1.139,10.254,3.255,14.812,6.022c3.906,2.441,4.883,6.674,2.767,11.231c-2.116,4.72-4.069,9.766-6.348,14.486
		c-0.651,1.139-2.93,2.767-3.906,2.441C235.685,350.425,226.896,347.007,217.455,343.427z"/>
</g>
</svg>
